# xmcd
#
# Track frame offsets:
#	150
#	18419
#	33389
#	38181
#	43478
#	48908
#	58384
#	67196
#	73067
#	79761
#	86727
#	94028
#	110447
#	118783
#	130436
#	139671
#	157648
#	172786
#	180808
#	189355
#	197056
#	204869
#	215491
#	224303
#	232919
#	239590
#	249001
#	254570
#	259942
#	267286
#	275203
#	282881
#	290028
#	298587
#	315014
#	331600
#	345792
#
# Disc length: 4641 seconds
#
# Revision: 0
# Processed by: cddbd v1.5.2PL0 Copyright (c) Steve Scherf et al.
# Submitted via: dBpowerAMP V4.0
#
DISCID=23121f25
DTITLE=Kaniche - En Vivo Nuestra Historia .. Tu Historia
DYEAR=2009
DGENRE=Undefined
TTITLE0=Poco Hombre
TTITLE1=Te Va A Doler
TTITLE2=No
TTITLE3=Esa Mujer
TTITLE4=Si Estuvieras Conmigo
TTITLE5=Vuelveme A Querer
TTITLE6=Peligroso Amor
TTITLE7=El Mejor
TTITLE8=Amante Perfecta
TTITLE9=En Estos Momentos
TTITLE10=No Me Acostumbro
TTITLE11=Hasta Que Me Olvides
TTITLE12=Sintonia De Amor
TTITLE13=Solo Tu
TTITLE14=Agua Caliente
TTITLE15=A Ti Mi Amor
TTITLE16=Procuro Olvidarte
TTITLE17=Amor De Texto
TTITLE18=Esa Mujer
TTITLE19=Lastima De Tanto Amor
TTITLE20=Un Monton De Estrellas
TTITLE21=Ojala
TTITLE22=Todo Se Paga
TTITLE23=Cuando Te Toque Llorar
TTITLE24=Cuando Te Enamoras
TTITLE25=Atrapado En Tus Redes
TTITLE26=Otro A Quien Amar
TTITLE27=Vete
TTITLE28=No Vale La Pena
TTITLE29=Ojala Que Te Mueras
TTITLE30=Estas En El Recuerdo
TTITLE31=Me Enamore Sin Darme Cuenta
TTITLE32=Ahora Te Puedes Marchar
TTITLE33=Que Te Han Dicho
TTITLE34=Y Hubo Alguien
TTITLE35=Pensamiento Y Palabra
TTITLE36=Despedida Musical
EXTD=
EXTT0=
EXTT1=
EXTT2=
EXTT3=
EXTT4=
EXTT5=
EXTT6=
EXTT7=
EXTT8=
EXTT9=
EXTT10=
EXTT11=
EXTT12=
EXTT13=
EXTT14=
EXTT15=
EXTT16=
EXTT17=
EXTT18=
EXTT19=
EXTT20=
EXTT21=
EXTT22=
EXTT23=
EXTT24=
EXTT25=
EXTT26=
EXTT27=
EXTT28=
EXTT29=
EXTT30=
EXTT31=
EXTT32=
EXTT33=
EXTT34=
EXTT35=
EXTT36=
PLAYORDER=
